# xmcd
#
# Track frame offsets: 
#        150
#        18180
#        33389
#        55672
#        68318
#        86175
#        101628
#        128967
#        136609
#        155994
#        174243
#        186306
#
# Disc length: 2747 seconds
#
# Revision: 0
# Processed by: cddbd v1.5.2PL0 Copyright (c) Steve Scherf et al.
# Submitted via: ExactAudioCopy v1.0b1
#
DISCID=970ab90c
DTITLE=MSG-The Acoustic Blues Trio - Meet Me in the Middle
DYEAR=2006
DGENRE=Blues
TTITLE0=There Is Always One More Time
TTITLE1=The Home Coming Song
TTITLE2=Frankie and Johnny
TTITLE3=You Don't Know My Mind
TTITLE4=Midnight Special
TTITLE5=Jody's Got Your Girl
TTITLE6=Isabel
TTITLE7=Racetrack Blues
TTITLE8=Get Right Church
TTITLE9=Hammer Ring - Take This Hammer
TTITLE10=Be My Husband
TTITLE11=Come To Me In Prayer
EXTD=
EXTT0=
EXTT1=
EXTT2=
EXTT3=
EXTT4=
EXTT5=
EXTT6=
EXTT7=
EXTT8=
EXTT9=
EXTT10=
EXTT11=
PLAYORDER=
